<svg width="412" height="60" viewBox="0 0 412 60" fill="none" xmlns="http://www.w3.org/2000/svg">
<g id="Group 2">
<g id="camera">
<g id="cameraInner">
<g id="Icons">
<g id="camera_2">
<g id="Group">
<path id="Rectangle-path" d="M84 9.23077H0V60H84V9.23077Z" fill="white"/>
<path id="Shape" fill-rule="evenodd" clip-rule="evenodd" d="M42 18.4615C51.0206 18.4615 58.3333 25.6939 58.3333 34.6154C58.3333 43.5369 51.0206 50.7692 42 50.7692C32.9793 50.7692 25.6667 43.5369 25.6667 34.6154C25.6667 25.6939 32.9793 18.4615 42 18.4615ZM42 27.6923C45.866 27.6923 49 30.7919 49 34.6154C49 38.4389 45.866 41.5385 42 41.5385C38.134 41.5385 35 38.4389 35 34.6154C35 30.7919 38.134 27.6923 42 27.6923ZM68.8333 18.4615C70.7663 18.4615 72.3333 20.0113 72.3333 21.9231C72.3333 23.8348 70.7663 25.3846 68.8333 25.3846C66.9003 25.3846 65.3333 23.8348 65.3333 21.9231C65.3333 20.0113 66.9003 18.4615 68.8333 18.4615ZM9.33333 9.23077L18.6667 0H32.6667L42 9.23077H9.33333Z" fill="#0C0058"/>
</g>
</g>
</g>
</g>
</g>
<g id="Group_2" opacity="0.7">
<g id="Group_3">
<path id="Vector" d="M107.18 26.48C105.727 25.3733 105 23.6367 105 21.27C105 18.8967 105.78 17.0933 107.34 15.86C108.893 14.62 111.017 14 113.71 14C115.417 14 118.297 14.3 122.35 14.9L126.7 15.54C128.147 15.7067 129.63 15.79 131.15 15.79C132.663 15.79 133.93 15.47 134.95 14.83C136.49 16.1967 137.26 17.8633 137.26 19.83C137.26 21.79 136.383 23.4733 134.63 24.88C132.843 26.3733 130.797 27.12 128.49 27.12C127.383 27.12 125.933 26.97 124.14 26.67C122.047 33.2433 121 38.8133 121 43.38C121 47.9467 122.153 51.4233 124.46 53.81C123.393 55.73 122.07 57.0633 120.49 57.81C118.91 58.5567 116.937 58.93 114.57 58.93C112.203 58.93 110.283 58.28 108.81 56.98C107.337 55.68 106.6 53.6833 106.6 50.99C106.6 47.8767 107.453 43.76 109.16 38.64C110.867 33.5667 113 29.0867 115.56 25.2C114.327 25.0733 113.07 25.01 111.79 25.01C109.143 25.01 107.607 25.5 107.18 26.48ZM148.33 57.65H134.63L142.44 15.6C146.667 15.1333 151.863 14.9 158.03 14.9C164.19 14.9 168.7 15.7967 171.56 17.59C174.42 19.3767 175.85 22.0733 175.85 25.68C175.85 29.2867 174.923 32.22 173.07 34.48C171.21 36.74 168.68 38.2333 165.48 38.96C166.207 42.5 167.403 45.7 169.07 48.56C170.603 51.2467 172.267 53.0167 174.06 53.87C173.42 55.6633 172.45 56.9567 171.15 57.75C169.843 58.5367 168.263 58.93 166.41 58.93C164.557 58.93 162.903 58.3867 161.45 57.3C159.997 56.2133 158.697 54.6667 157.55 52.66C155.117 48.3067 153.77 42.6967 153.51 35.83H153.96C157.12 35.7433 159.49 34.8767 161.07 33.23C162.643 31.59 163.43 29.0433 163.43 25.59C163.43 21.2767 161.617 19.0367 157.99 18.87H156.59C156.203 18.87 155.903 18.89 155.69 18.93L148.33 57.65ZM206.12 47.79C206.933 48.8167 207.34 50.1633 207.34 51.83C207.34 54.13 206.487 55.89 204.78 57.11C203.073 58.3233 200.877 58.93 198.19 58.93C196.65 58.93 194.707 58.76 192.36 58.42C187.753 57.6933 184.747 57.33 183.34 57.33C181.933 57.33 180.95 57.3633 180.39 57.43C179.837 57.49 179.113 57.5633 178.22 57.65L186.09 15.41H213.67C213.67 18.01 213.043 19.9933 211.79 21.36C210.53 22.7267 208.663 23.41 206.19 23.41C203.71 23.41 201.213 22.8333 198.7 21.68L196.71 32.88H208.11C208.11 35.14 207.553 36.9 206.44 38.16C205.333 39.42 203.85 40.05 201.99 40.05C200.137 40.05 198.633 39.8367 197.48 39.41C196.327 38.9833 195.687 38.7067 195.56 38.58L193.26 50.67C194.28 50.8033 195.75 50.87 197.67 50.87C200.957 50.87 203.773 49.8433 206.12 47.79ZM241.32 58.93C235.86 58.93 232.873 55.0467 232.36 47.28H221.35C220.497 49.2467 219.773 51.0833 219.18 52.79L217.51 57.65H208.55L228.71 15.41H242.47L245.16 46.51C245.587 50.99 246.653 53.8933 248.36 55.22C247.127 57.6933 244.78 58.93 241.32 58.93ZM226.86 34.48L223.34 42.61H232.17L231.4 26.16V24.43L226.86 34.48ZM277.03 28.08C277.67 26.8 277.99 25.5633 277.99 24.37C277.99 23.1767 277.927 22.25 277.8 21.59C277.673 20.9233 277.46 20.3367 277.16 19.83C276.52 18.7167 275.56 18.16 274.28 18.16C272.7 18.16 271.27 18.7367 269.99 19.89C268.63 21.0833 267.95 22.62 267.95 24.5C267.95 25.6933 268.363 26.75 269.19 27.67C270.023 28.5833 271.08 29.4667 272.36 30.32C273.64 31.1733 275.007 32.0267 276.46 32.88C277.907 33.7333 279.27 34.6733 280.55 35.7C283.497 38.0467 284.97 40.7967 284.97 43.95C284.97 46.0833 284.403 48.0567 283.27 49.87C282.143 51.6833 280.64 53.2533 278.76 54.58C274.667 57.48 269.91 58.93 264.49 58.93C260.097 58.93 256.77 58.2167 254.51 56.79C252.243 55.3567 251.11 53.5533 251.11 51.38C251.11 47.4933 252.627 45.06 255.66 44.08C256.513 43.78 257.59 43.63 258.89 43.63C260.19 43.63 261.587 43.91 263.08 44.47C262.4 46.2167 262.06 47.88 262.06 49.46C262.06 52.8733 263.277 54.58 265.71 54.58C267.283 54.58 268.723 54.0033 270.03 52.85C271.33 51.6967 271.98 50.47 271.98 49.17C271.98 47.87 271.563 46.75 270.73 45.81C269.897 44.87 268.863 44.0267 267.63 43.28C266.39 42.5333 265.057 41.7967 263.63 41.07C262.197 40.35 260.863 39.4767 259.63 38.45C256.723 36.1033 255.27 33.0533 255.27 29.3C255.27 26.8667 255.87 24.7 257.07 22.8C258.263 20.9 259.82 19.31 261.74 18.03C265.58 15.43 269.857 14.13 274.57 14.13C279.283 14.13 282.783 14.8333 285.07 16.24C287.35 17.6467 288.49 19.5467 288.49 21.94C288.49 24.0267 287.68 25.7333 286.06 27.06C284.653 28.1667 283.097 28.72 281.39 28.72C279.683 28.72 278.23 28.5067 277.03 28.08ZM291.05 48.18C291.05 46.5133 291.263 44.6133 291.69 42.48L296.87 15.41H311.02L305.9 42.67C305.513 44.6767 305.32 46.4167 305.32 47.89C305.32 49.3633 305.63 50.4833 306.25 51.25C306.87 52.0167 307.757 52.4 308.91 52.4C310.057 52.4 310.993 52.25 311.72 51.95C312.447 51.6567 313.11 51.1467 313.71 50.42C314.857 48.9667 315.793 46.3833 316.52 42.67L321.71 15.41H331.37L326.25 42.61C325.057 48.67 322.817 52.9167 319.53 55.35C316.33 57.7367 311.573 58.93 305.26 58.93C300.52 58.93 296.893 57.9067 294.38 55.86C292.16 54.0667 291.05 51.5067 291.05 48.18ZM345.77 57.65H332.07L339.88 15.6C344.107 15.1333 349.303 14.9 355.47 14.9C361.63 14.9 366.14 15.7967 369 17.59C371.86 19.3767 373.29 22.0733 373.29 25.68C373.29 29.2867 372.363 32.22 370.51 34.48C368.65 36.74 366.12 38.2333 362.92 38.96C363.647 42.5 364.843 45.7 366.51 48.56C368.043 51.2467 369.707 53.0167 371.5 53.87C370.86 55.6633 369.89 56.9567 368.59 57.75C367.283 58.5367 365.703 58.93 363.85 58.93C361.997 58.93 360.343 58.3867 358.89 57.3C357.437 56.2133 356.137 54.6667 354.99 52.66C352.557 48.3067 351.21 42.6967 350.95 35.83H351.4C354.56 35.7433 356.93 34.8767 358.51 33.23C360.083 31.59 360.87 29.0433 360.87 25.59C360.87 21.2767 359.057 19.0367 355.43 18.87H354.03C353.643 18.87 353.343 18.89 353.13 18.93L345.77 57.65ZM403.56 47.79C404.373 48.8167 404.78 50.1633 404.78 51.83C404.78 54.13 403.927 55.89 402.22 57.11C400.513 58.3233 398.317 58.93 395.63 58.93C394.09 58.93 392.147 58.76 389.8 58.42C385.193 57.6933 382.187 57.33 380.78 57.33C379.373 57.33 378.39 57.3633 377.83 57.43C377.277 57.49 376.553 57.5633 375.66 57.65L383.53 15.41H411.11C411.11 18.01 410.483 19.9933 409.23 21.36C407.97 22.7267 406.103 23.41 403.63 23.41C401.15 23.41 398.653 22.8333 396.14 21.68L394.15 32.88H405.55C405.55 35.14 404.993 36.9 403.88 38.16C402.773 39.42 401.29 40.05 399.43 40.05C397.577 40.05 396.073 39.8367 394.92 39.41C393.767 38.9833 393.127 38.7067 393 38.58L390.7 50.67C391.72 50.8033 393.19 50.87 395.11 50.87C398.397 50.87 401.213 49.8433 403.56 47.79Z" fill="url(#paint0_linear_4_30)"/>
</g>
</g>
</g>
<defs>
<linearGradient id="paint0_linear_4_30" x1="118.232" y1="27.3277" x2="151.079" y2="126.964" gradientUnits="userSpaceOnUse">
<stop stop-color="#FDFDFD"/>
<stop offset="1" stop-color="#5c5c5c"/>
</linearGradient>
</defs>
</svg>
