<svg width="423" height="68" viewBox="0 0 423 68" fill="none" xmlns="http://www.w3.org/2000/svg">
<g id="Group 1" filter="url(#filter0_d_2_18)">
<g id="word">
<g id="Group">
<path id="Vector" d="M114.18 27.48C112.727 26.3733 112 24.6367 112 22.27C112 19.8967 112.78 18.0933 114.34 16.86C115.893 15.62 118.017 15 120.71 15C122.417 15 125.297 15.3 129.35 15.9L133.7 16.54C135.147 16.7067 136.63 16.79 138.15 16.79C139.663 16.79 140.93 16.47 141.95 15.83C143.49 17.1967 144.26 18.8633 144.26 20.83C144.26 22.79 143.383 24.4733 141.63 25.88C139.843 27.3733 137.797 28.12 135.49 28.12C134.383 28.12 132.933 27.97 131.14 27.67C129.047 34.2433 128 39.8133 128 44.38C128 48.9467 129.153 52.4233 131.46 54.81C130.393 56.73 129.07 58.0633 127.49 58.81C125.91 59.5567 123.937 59.93 121.57 59.93C119.203 59.93 117.283 59.28 115.81 57.98C114.337 56.68 113.6 54.6833 113.6 51.99C113.6 48.8767 114.453 44.76 116.16 39.64C117.867 34.5667 120 30.0867 122.56 26.2C121.327 26.0733 120.07 26.01 118.79 26.01C116.143 26.01 114.607 26.5 114.18 27.48ZM155.33 58.65H141.63L149.44 16.6C153.667 16.1333 158.863 15.9 165.03 15.9C171.19 15.9 175.7 16.7967 178.56 18.59C181.42 20.3767 182.85 23.0733 182.85 26.68C182.85 30.2867 181.923 33.22 180.07 35.48C178.21 37.74 175.68 39.2333 172.48 39.96C173.207 43.5 174.403 46.7 176.07 49.56C177.603 52.2467 179.267 54.0167 181.06 54.87C180.42 56.6633 179.45 57.9567 178.15 58.75C176.843 59.5367 175.263 59.93 173.41 59.93C171.557 59.93 169.903 59.3867 168.45 58.3C166.997 57.2133 165.697 55.6667 164.55 53.66C162.117 49.3067 160.77 43.6967 160.51 36.83H160.96C164.12 36.7433 166.49 35.8767 168.07 34.23C169.643 32.59 170.43 30.0433 170.43 26.59C170.43 22.2767 168.617 20.0367 164.99 19.87H163.59C163.203 19.87 162.903 19.89 162.69 19.93L155.33 58.65ZM213.12 48.79C213.933 49.8167 214.34 51.1633 214.34 52.83C214.34 55.13 213.487 56.89 211.78 58.11C210.073 59.3233 207.877 59.93 205.19 59.93C203.65 59.93 201.707 59.76 199.36 59.42C194.753 58.6933 191.747 58.33 190.34 58.33C188.933 58.33 187.95 58.3633 187.39 58.43C186.837 58.49 186.113 58.5633 185.22 58.65L193.09 16.41H220.67C220.67 19.01 220.043 20.9933 218.79 22.36C217.53 23.7267 215.663 24.41 213.19 24.41C210.71 24.41 208.213 23.8333 205.7 22.68L203.71 33.88H215.11C215.11 36.14 214.553 37.9 213.44 39.16C212.333 40.42 210.85 41.05 208.99 41.05C207.137 41.05 205.633 40.8367 204.48 40.41C203.327 39.9833 202.687 39.7067 202.56 39.58L200.26 51.67C201.28 51.8033 202.75 51.87 204.67 51.87C207.957 51.87 210.773 50.8433 213.12 48.79ZM248.32 59.93C242.86 59.93 239.873 56.0467 239.36 48.28H228.35C227.497 50.2467 226.773 52.0833 226.18 53.79L224.51 58.65H215.55L235.71 16.41H249.47L252.16 47.51C252.587 51.99 253.653 54.8933 255.36 56.22C254.127 58.6933 251.78 59.93 248.32 59.93ZM233.86 35.48L230.34 43.61H239.17L238.4 27.16V25.43L233.86 35.48ZM284.03 29.08C284.67 27.8 284.99 26.5633 284.99 25.37C284.99 24.1767 284.927 23.25 284.8 22.59C284.673 21.9233 284.46 21.3367 284.16 20.83C283.52 19.7167 282.56 19.16 281.28 19.16C279.7 19.16 278.27 19.7367 276.99 20.89C275.63 22.0833 274.95 23.62 274.95 25.5C274.95 26.6933 275.363 27.75 276.19 28.67C277.023 29.5833 278.08 30.4667 279.36 31.32C280.64 32.1733 282.007 33.0267 283.46 33.88C284.907 34.7333 286.27 35.6733 287.55 36.7C290.497 39.0467 291.97 41.7967 291.97 44.95C291.97 47.0833 291.403 49.0567 290.27 50.87C289.143 52.6833 287.64 54.2533 285.76 55.58C281.667 58.48 276.91 59.93 271.49 59.93C267.097 59.93 263.77 59.2167 261.51 57.79C259.243 56.3567 258.11 54.5533 258.11 52.38C258.11 48.4933 259.627 46.06 262.66 45.08C263.513 44.78 264.59 44.63 265.89 44.63C267.19 44.63 268.587 44.91 270.08 45.47C269.4 47.2167 269.06 48.88 269.06 50.46C269.06 53.8733 270.277 55.58 272.71 55.58C274.283 55.58 275.723 55.0033 277.03 53.85C278.33 52.6967 278.98 51.47 278.98 50.17C278.98 48.87 278.563 47.75 277.73 46.81C276.897 45.87 275.863 45.0267 274.63 44.28C273.39 43.5333 272.057 42.7967 270.63 42.07C269.197 41.35 267.863 40.4767 266.63 39.45C263.723 37.1033 262.27 34.0533 262.27 30.3C262.27 27.8667 262.87 25.7 264.07 23.8C265.263 21.9 266.82 20.31 268.74 19.03C272.58 16.43 276.857 15.13 281.57 15.13C286.283 15.13 289.783 15.8333 292.07 17.24C294.35 18.6467 295.49 20.5467 295.49 22.94C295.49 25.0267 294.68 26.7333 293.06 28.06C291.653 29.1667 290.097 29.72 288.39 29.72C286.683 29.72 285.23 29.5067 284.03 29.08ZM298.05 49.18C298.05 47.5133 298.263 45.6133 298.69 43.48L303.87 16.41H318.02L312.9 43.67C312.513 45.6767 312.32 47.4167 312.32 48.89C312.32 50.3633 312.63 51.4833 313.25 52.25C313.87 53.0167 314.757 53.4 315.91 53.4C317.057 53.4 317.993 53.25 318.72 52.95C319.447 52.6567 320.11 52.1467 320.71 51.42C321.857 49.9667 322.793 47.3833 323.52 43.67L328.71 16.41H338.37L333.25 43.61C332.057 49.67 329.817 53.9167 326.53 56.35C323.33 58.7367 318.573 59.93 312.26 59.93C307.52 59.93 303.893 58.9067 301.38 56.86C299.16 55.0667 298.05 52.5067 298.05 49.18ZM352.77 58.65H339.07L346.88 16.6C351.107 16.1333 356.303 15.9 362.47 15.9C368.63 15.9 373.14 16.7967 376 18.59C378.86 20.3767 380.29 23.0733 380.29 26.68C380.29 30.2867 379.363 33.22 377.51 35.48C375.65 37.74 373.12 39.2333 369.92 39.96C370.647 43.5 371.843 46.7 373.51 49.56C375.043 52.2467 376.707 54.0167 378.5 54.87C377.86 56.6633 376.89 57.9567 375.59 58.75C374.283 59.5367 372.703 59.93 370.85 59.93C368.997 59.93 367.343 59.3867 365.89 58.3C364.437 57.2133 363.137 55.6667 361.99 53.66C359.557 49.3067 358.21 43.6967 357.95 36.83H358.4C361.56 36.7433 363.93 35.8767 365.51 34.23C367.083 32.59 367.87 30.0433 367.87 26.59C367.87 22.2767 366.057 20.0367 362.43 19.87H361.03C360.643 19.87 360.343 19.89 360.13 19.93L352.77 58.65ZM410.56 48.79C411.373 49.8167 411.78 51.1633 411.78 52.83C411.78 55.13 410.927 56.89 409.22 58.11C407.513 59.3233 405.317 59.93 402.63 59.93C401.09 59.93 399.147 59.76 396.8 59.42C392.193 58.6933 389.187 58.33 387.78 58.33C386.373 58.33 385.39 58.3633 384.83 58.43C384.277 58.49 383.553 58.5633 382.66 58.65L390.53 16.41H418.11C418.11 19.01 417.483 20.9933 416.23 22.36C414.97 23.7267 413.103 24.41 410.63 24.41C408.15 24.41 405.653 23.8333 403.14 22.68L401.15 33.88H412.55C412.55 36.14 411.993 37.9 410.88 39.16C409.773 40.42 408.29 41.05 406.43 41.05C404.577 41.05 403.073 40.8367 401.92 40.41C400.767 39.9833 400.127 39.7067 400 39.58L397.7 51.67C398.72 51.8033 400.19 51.87 402.11 51.87C405.397 51.87 408.213 50.8433 410.56 48.79Z" fill="url(#paint0_linear_2_18)"/>
</g>
</g>
<g id="camera">
<g id="cameraInner">
<g id="Icons">
<g id="camera_2">
<g id="Group_2">
<path id="Rectangle-path" d="M88 9.23077H4V60H88V9.23077Z" fill="#FF6E6E"/>
<path id="Shape" fill-rule="evenodd" clip-rule="evenodd" d="M46 18.4615C55.0206 18.4615 62.3333 25.6939 62.3333 34.6154C62.3333 43.5369 55.0206 50.7692 46 50.7692C36.9793 50.7692 29.6667 43.5369 29.6667 34.6154C29.6667 25.6939 36.9793 18.4615 46 18.4615ZM46 27.6923C49.866 27.6923 53 30.7919 53 34.6154C53 38.4389 49.866 41.5385 46 41.5385C42.134 41.5385 39 38.4389 39 34.6154C39 30.7919 42.134 27.6923 46 27.6923ZM72.8333 18.4615C74.7663 18.4615 76.3333 20.0113 76.3333 21.9231C76.3333 23.8348 74.7663 25.3846 72.8333 25.3846C70.9003 25.3846 69.3333 23.8348 69.3333 21.9231C69.3333 20.0113 70.9003 18.4615 72.8333 18.4615ZM13.3333 9.23077L22.6667 0H36.6667L46 9.23077H13.3333Z" fill="#0C0058"/>
</g>
</g>
</g>
</g>
</g>
</g>
<defs>
<filter id="filter0_d_2_18" x="0" y="0" width="422.11" height="68" filterUnits="userSpaceOnUse" color-interpolation-filters="sRGB">
<feFlood flood-opacity="0" result="BackgroundImageFix"/>
<feColorMatrix in="SourceAlpha" type="matrix" values="0 0 0 0 0 0 0 0 0 0 0 0 0 0 0 0 0 0 127 0" result="hardAlpha"/>
<feOffset dy="4"/>
<feGaussianBlur stdDeviation="2"/>
<feComposite in2="hardAlpha" operator="out"/>
<feColorMatrix type="matrix" values="0 0 0 0 0 0 0 0 0 0 0 0 0 0 0 0 0 0 0.25 0"/>
<feBlend mode="normal" in2="BackgroundImageFix" result="effect1_dropShadow_2_18"/>
<feBlend mode="normal" in="SourceGraphic" in2="effect1_dropShadow_2_18" result="shape"/>
</filter>
<linearGradient id="paint0_linear_2_18" x1="125.232" y1="28.3277" x2="158.079" y2="127.964" gradientUnits="userSpaceOnUse">
<stop stop-color="#EF5350"/>
<stop offset="1" stop-color="#AB47BC"/>
</linearGradient>
</defs>
</svg>
